<?xml version="1.0" encoding="utf-8"?>
<!-- Generator: Adobe Illustrator 16.0.0, SVG Export Plug-In . SVG Version: 6.00 Build 0)  -->
<!DOCTYPE svg PUBLIC "-//W3C//DTD SVG 1.1//EN" "http://www.w3.org/Graphics/SVG/1.1/DTD/svg11.dtd">
<svg version="1.1" id="Layer_1" xmlns="http://www.w3.org/2000/svg" xmlns:xlink="http://www.w3.org/1999/xlink" x="0px" y="0px"
	 width="118px" height="33px" viewBox="0 0 118 33" enable-background="new 0 0 118 33" xml:space="preserve">
<rect fill="#F5F5ED" width="118" height="33"/>
<g>
	<path fill="#D9272E" d="M67.701,14.366c-0.741-0.99-2.152-1.915-3.431-1.876c-0.838,0.025-1.741,0.279-2.485,0.656
		c-0.375,0.191-0.688,0.423-0.957,0.695c-0.045,0.043-0.096,0.082-0.136,0.127c-0.017,0.016-0.031,0.029-0.045,0.043
		c-0.885,1.023-1.502,2.172-1.882,3.488c-0.621,2.974,0.732,5.84,3.1,6.768c0.35,0.113,0.714,0.205,1.115,0.246l0.076,0.01
		c0.538,0.051,0.999,0.019,1.369-0.099c1.859-0.595,3.17-1.78,3.893-3.521c0.237-0.578,0.505-1.256,0.627-1.932
		c0.199-1.109-0.015-2.242-0.686-3.674C68.109,14.975,67.916,14.652,67.701,14.366z"/>
	<path fill="#D9272E" d="M106.596,14.543c-0.654-0.904-1.917-1.815-3.073-1.82c-0.504-0.002-1.036-0.006-1.529,0.107
		c-0.495,0.113-0.923,0.27-1.304,0.464c-0.372,0.187-0.684,0.417-0.954,0.687c-0.042,0.044-0.093,0.082-0.132,0.127
		c-0.014,0.017-0.032,0.029-0.046,0.043c-0.879,0.857-1.544,2.01-1.846,3.336c-0.01,0.041-0.016,0.086-0.023,0.128
		c-0.614,2.952,0.731,5.796,3.082,6.718c0.345,0.113,0.707,0.203,1.104,0.244l0.076,0.012c0.535,0.048,0.991,0.017,1.358-0.101
		c1.852-0.591,3.151-1.765,3.869-3.495c0.241-0.575,0.503-1.244,0.622-1.916c0.195-1.104-0.011-2.227-0.679-3.646
		C106.978,15.12,106.795,14.816,106.596,14.543z"/>
	<path fill="#D9272E" d="M0,0v33h118V0H0z M24.975,8.204c-0.199,0.554-0.384,1.111-0.621,1.65c-0.617,1.401-1.336,2.87-2.35,4.028
		c-0.948,1.09-2.203,1.947-3.479,2.609c-0.18,0.092-0.365,0.174-0.55,0.248c-0.175,0.074-0.355,0.15-0.527,0.24
		c0.411,0.373,1.054,0.9,1.49,1.461c1.177,1.509,1.598,3.34,1.66,5.205c0.019,0.559,0.019,1.119,0.019,1.678
		c0,0.119,0.007,0.229,0.003,0.322c-0.007,0.422-0.028,0.595-0.161,0.728c-0.147,0.153-0.362,0.113-0.94,0.107
		c-0.497-0.008-0.699,0.022-0.826-0.108c-0.096-0.096-0.101-0.238-0.098-0.461c0.021-1.289-0.007-2.247-0.096-3.025
		c-0.158-1.425-0.534-2.42-1.297-3.436c-0.573-0.762-1.377-1.268-2.537-1.588c-0.172-0.049-0.418-0.004-0.668,0.051
		c-0.113,0.022-0.612,0.125-0.693,0.136c-0.377,0.044-0.468,0.125-0.523,0.467c-0.432,2.674-1.358,7.345-1.377,7.419
		c-0.077,0.299-0.109,0.711-0.325,0.775C10.931,26.753,10.876,27,10.544,27H9.932c-0.251,0-0.59-0.23-0.658-0.565
		c-0.053-0.275,0.201-1.436,0.248-1.675c0.333-1.645,0.832-4.275,1.208-6.035c0,0,2.532-12.988,2.535-13
		c0.033-0.16,0.065-0.412,0.222-0.489c0.165-0.081,0.322-0.095,0.501-0.095c0.444,0,0.731,0.014,0.921,0.057
		c0.147,0.035,0.24,0.078,0.299,0.15c0.105,0.126,0.083,0.279,0.05,0.461L15.239,5.92c-0.114,0.801-0.257,1.798-0.45,2.742
		c-0.336,1.643-0.551,2.627-0.776,3.671c-0.174,0.801-0.356,1.656-0.618,2.896c-0.047,0.209-0.083,0.416-0.129,0.646
		c0.629-0.038,1.881-0.188,2.574-0.441c2.212-0.806,3.813-1.761,5.283-3.694c1.014-1.334,1.749-2.734,2.125-4.373
		C23.367,6.842,23.458,7,24.318,7h0.201c0.34,0,0.56-0.124,0.684,0.009C25.341,7.161,25.147,7.729,24.975,8.204z M33.355,10.608
		L30.438,24.72c-0.013,0.073-0.029,0.151-0.039,0.228l-0.015,0.061c-0.058,0.318-0.181,0.787-0.245,1.087
		c-0.074,0.326-0.275,0.411-0.943,0.403c-0.486-0.004-0.927,0.043-1.045-0.15c-0.088-0.146-0.069-0.267-0.021-0.498
		c0.016-0.08,2.126-10.281,2.439-11.922c0,0,0.709-3.505,0.772-3.592c0.056-0.289,0.556-0.303,1.049-0.287
		C32.93,10.064,33.527,10.047,33.355,10.608z M32.93,8.879c-0.048,0.006-0.093,0.01-0.133,0.006
		c-0.851-0.092-1.269-0.896-0.964-1.688c0.17-0.446,0.538-0.762,1.019-0.789c0.43-0.026,1.061,0.182,1.193,0.641
		C34.33,8.039,33.787,8.783,32.93,8.879z M51.102,16.014c0,0-1.809,9.353-1.898,9.77c-0.082,0.398-0.085,0.719-0.387,0.77
		c-0.121,0.021-0.834,0.021-0.834,0.021s-0.757,0.04-0.884-0.206c-0.106-0.21-0.009-0.513,0.022-0.732
		c0.021-0.143,0.621-2.896,0.692-3.267c0.081-0.423,0.706-3.604,0.853-4.249c0.135-0.604,0.24-1.211,0.341-1.82
		c0.167-1.007,0.572-2.508-0.487-3.172c-0.293-0.187-0.703-0.359-1.054-0.402c-1.001-0.128-2.115,0.146-3.028,0.535
		c-0.715,0.305-1.661,0.949-1.997,1.439c-0.302,0.437-0.39,0.926-0.495,1.426c-0.108,0.51-0.252,1.209-0.347,1.723
		c-0.021,0.123-1.115,5.624-1.238,6.205c-0.084,0.387-0.199,1.139-0.278,1.527c-0.008,0.032-0.014,0.064-0.021,0.096
		c-0.062,0.24-0.101,0.52-0.252,0.73c-0.159,0.225-0.672,0.164-0.924,0.16c-0.198-0.004-0.176-0.029-0.354-0.025
		c-0.242,0.003-0.394,0.009-0.513-0.158c-0.09-0.127-0.09-0.191-0.005-0.596c0.146-0.877,1.607-8.25,2.208-11.146
		c0.247-1.192,0.716-3.379,0.784-3.741c0.034-0.194,0.063-0.434,0.18-0.599c0.148-0.212,0.506-0.2,0.736-0.2
		c0.322,0.001,0.701-0.046,1.009,0.083c0.209,0.088,0.087,0.441,0.053,0.623c-0.011,0.052-0.043,0.364-0.188,1.006
		c0.535-0.331,1.131-0.553,1.722-0.761c0.526-0.187,1.06-0.297,1.611-0.358c0.739-0.082,1.516-0.004,2.246,0.135
		c1.269,0.248,2.405,1.319,2.767,2.578C51.375,14.229,51.313,15.031,51.102,16.014z M70.926,19.383
		c-0.034,0.237-0.074,0.475-0.129,0.713c-0.048,0.203-0.104,0.402-0.164,0.603c-0.888,2.943-3.204,5.144-5.895,5.669
		c-0.281,0.072-0.561,0.127-0.797,0.137c-0.477,0.015-1.022,0.035-1.557-0.018c-0.371-0.035-0.707-0.102-1.021-0.201
		c-1.137-0.367-1.979-1.129-2.676-1.814c-0.794-0.779-1.48-1.793-1.858-3.168c-0.302-1.09-0.201-3.147,0.129-4.514
		c0.9-3.691,3.877-6.246,7.262-6.246c0.477,0,0.95,0.053,1.419,0.16c1.877,0.426,3.445,1.654,4.416,3.459
		C70.895,15.723,71.193,17.553,70.926,19.383z M91.953,7.846c-0.156,0.533-0.308,1.029-0.575,1.586
		c-0.058,0.144-0.107,0.289-0.169,0.43c-0.605,1.395-1.329,2.812-2.324,3.969c-0.954,1.11-2.209,2-3.506,2.674
		c-0.178,0.092-0.366,0.172-0.546,0.248c-0.177,0.073-0.36,0.15-0.531,0.24c0.097,0.091,0.198,0.182,0.293,0.272
		c0.387,0.298,0.757,0.646,1.077,1.009c0.572,0.647,1.007,1.42,1.316,2.221c0.326,0.852,0.467,1.789,0.475,2.696
		c0.002,0.189,0.002,0.38,0.002,0.569c0.003,0.631-0.002,1.266,0.014,1.9c0.004,0.358,0.042,0.576-0.087,0.711
		c-0.046,0.045-0.088,0.076-0.157,0.096c-0.163,0.053-0.455,0.031-0.863,0.023c-0.434-0.006-0.599,0.033-0.728-0.051
		c-0.018-0.012-0.08-0.039-0.098-0.055c-0.093-0.096-0.328-0.24-0.321-0.461C85.226,25.664,85,25.418,85,25.182v-0.023V25.12
		c0-0.896,0.191-1.616,0.125-2.222c-0.158-1.426-0.42-2.419-1.18-3.436c-0.574-0.764-1.322-1.27-2.482-1.589
		c-0.258-0.071-0.507,0.019-0.763,0.065c-0.271,0.051-0.528,0.091-0.793,0.167c-0.196,0.061-0.247,0.23-0.278,0.421
		c-0.427,2.643-1.432,7.339-1.442,7.416c-0.053,0.346-0.123,0.479-0.422,0.531c-0.141,0.025-0.259,0.039-0.522,0.039
		c0,0-0.324-0.018-0.629-0.039c-0.186-0.013-0.285,0-0.415-0.162c-0.153-0.192-0.016-0.556,0.027-0.766
		c0.033-0.183,3.905-19.887,3.905-19.887c0.039-0.187,0.074-0.309,0.155-0.387c0.109-0.104,0.294-0.136,0.678-0.136
		c0.179,0,0.234,0.004,0.41,0.009c0.157,0.004,0.376,0.002,0.519,0.068c0.329,0.152,0.229,0.561,0.179,0.836
		c-0.065,0.361-0.135,0.721-0.201,1.08c-0.09,0.476-0.178,0.951-0.268,1.426c-0.096,0.514-0.192,1.026-0.291,1.541
		c-0.088,0.451-0.172,0.903-0.263,1.354c-0.056,0.293-0.114,0.586-0.174,0.877c-0.178,0.805-0.363,1.664-0.622,2.914
		c-0.048,0.221-0.091,0.441-0.139,0.688c1.038-0.132,2.124-0.351,3.181-0.743c0.653-0.295,1.326-0.64,2.113-1.082
		c0.225-0.127,0.433-0.264,0.637-0.406c0.789-0.596,1.484-1.316,2.008-2.182c0.606-1,1.154-1.934,1.573-2.795
		c0.034-0.102,0.069-0.203,0.108-0.302c0.119-0.336,0.244-0.685,0.334-1.033c0.016-0.063,0.029-0.122,0.039-0.176
		c0.09-0.397,0.168-0.493,0.577-0.517c0.128-0.01,0.794-0.012,0.845-0.01c0.255,0.012,0.438,0.049,0.53,0.169
		C92.162,6.992,91.988,7.729,91.953,7.846z M109.726,19.447c-0.003,0.042-0.005,0.082-0.011,0.12
		c-0.048,0.389-0.146,0.786-0.277,1.185c-0.882,2.92-3.178,5.098-5.844,5.619c-0.278,0.071-0.557,0.126-0.787,0.135
		c-0.477,0.018-1.014,0.035-1.543-0.016c-0.372-0.034-0.702-0.102-1.016-0.201c-1.121-0.363-1.956-1.119-2.648-1.799
		c-0.787-0.771-1.362-1.718-1.815-3.055c-0.152-0.46-0.215-1.047-0.209-1.532c0-0.166,0.003-0.326,0.011-0.483
		c0.008-0.213,0.082-1.654,0.265-2.438c0.842-3.672,3.877-6.338,7.229-6.338c0.471,0,0.947,0.055,1.406,0.16
		c1.858,0.422,3.415,1.643,4.376,3.43c0.593,1.102,0.913,2.342,0.954,3.618C109.834,18.381,109.803,18.915,109.726,19.447z"/>
</g>
</svg>
